<mxfile host="app.diagrams.net" modified="2023-10-03T17:53:27.606Z" agent="Mozilla/5.0 (Macintosh; Intel Mac OS X 10_15_7) AppleWebKit/605.1.15 (KHTML, like Gecko) Version/16.5 Safari/605.1.15" version="21.8.1" etag="DH5pREDuVE4UOW59v8u0" type="github">
  <diagram name="Seite-1" id="l1u5FiIFCxUctXB5YJUL">
    <mxGraphModel>
      <root>
        <mxCell id="0" />
        <mxCell id="1" parent="0" />
      </root>
    </mxGraphModel>
  </diagram>
</mxfile>
